<svg xmlns="http://www.w3.org/2000/svg" viewBox="0 0 680 200" fill="none">
  <rect width="680" height="200" rx="16" fill="#0d1117"/>
  <defs><pattern id="g" width="40" height="40" patternUnits="userSpaceOnUse"><path d="M40 0L0 0 0 40" fill="none" stroke="#161b22" stroke-width="1"/></pattern></defs>
  <rect width="680" height="200" fill="url(#g)"/>
  <g transform="translate(40,40)">
    <rect width="120" height="120" rx="16" fill="#1a2332" stroke="#a371f7" stroke-width="2.5"/>
    <circle cx="60" cy="42" r="16" fill="none" stroke="#a371f7" stroke-width="2"/>
    <circle cx="60" cy="38" r="5" fill="#a371f7" opacity="0.5"/>
    <rect x="30" y="62" width="60" height="40" rx="6" fill="none" stroke="#a371f7" stroke-width="1.5" opacity="0.5"/>
    <line x1="40" y1="72" x2="80" y2="72" stroke="#a371f7" stroke-width="1" opacity="0.3"/>
    <line x1="40" y1="82" x2="70" y2="82" stroke="#a371f7" stroke-width="1" opacity="0.3"/>
    <line x1="40" y1="92" x2="75" y2="92" stroke="#a371f7" stroke-width="1" opacity="0.3"/>
  </g>
  <text x="195" y="72" font-family="'Segoe UI',system-ui,sans-serif" font-size="46" fill="#e6edf3" font-weight="700" letter-spacing="-1">MyHome</text>
  <text x="195" y="118" font-family="'Segoe UI',system-ui,sans-serif" font-size="46" fill="#a371f7" font-weight="700" letter-spacing="-1">Academic</text>
  <text x="197" y="148" font-family="'Segoe UI',system-ui,sans-serif" font-size="14" fill="#7d8590">&#x5B66;&#x672F;&#x4E3B;&#x9875;&#x751F;&#x6210;&#x5668; | Flask | SQLite</text>
  <g transform="translate(197,162)">
    <rect width="66" height="22" rx="11" fill="#1a2332" stroke="#a371f7" stroke-width="1"/>
    <text x="33" y="15" font-family="monospace" font-size="10" fill="#a371f7" text-anchor="middle">Python</text>
    <rect x="76" width="60" height="22" rx="11" fill="#1a2332" stroke="#58a6ff" stroke-width="1"/>
    <text x="106" y="15" font-family="monospace" font-size="10" fill="#58a6ff" text-anchor="middle">Flask</text>
    <rect x="146" width="66" height="22" rx="11" fill="#1a2332" stroke="#3fb950" stroke-width="1"/>
    <text x="179" y="15" font-family="monospace" font-size="10" fill="#3fb950" text-anchor="middle">SQLite</text>
  </g>
</svg>