<svg xmlns="http://www.w3.org/2000/svg" viewBox="0 0 680 180" fill="none">
  <rect width="680" height="180" rx="16" fill="#0d1117"/>
  <defs><pattern id="g" width="40" height="40" patternUnits="userSpaceOnUse"><path d="M40 0L0 0 0 40" fill="none" stroke="#161b22" stroke-width="1"/></pattern></defs>
  <rect width="680" height="180" fill="url(#g)"/>
  <g transform="translate(30,50)">
    <rect width="80" height="80" rx="14" fill="#1a2332" stroke="#a371f7" stroke-width="2"/>
    <circle cx="40" cy="28" r="10" fill="none" stroke="#a371f7" stroke-width="1.5"/>
    <circle cx="40" cy="25" r="3.5" fill="#a371f7" opacity="0.5"/>
    <rect x="18" y="42" width="44" height="28" rx="4" fill="none" stroke="#a371f7" stroke-width="1.2" opacity="0.5"/>
    <line x1="24" y1="50" x2="56" y2="50" stroke="#a371f7" stroke-width="0.8" opacity="0.3"/>
    <line x1="24" y1="57" x2="48" y2="57" stroke="#a371f7" stroke-width="0.8" opacity="0.3"/>
    <line x1="24" y1="64" x2="52" y2="64" stroke="#a371f7" stroke-width="0.8" opacity="0.3"/>
  </g>
  <text x="135" y="76" font-family="'Segoe UI',system-ui,sans-serif" font-size="42" fill="#e6edf3" font-weight="700" letter-spacing="-1">MyHome Academic</text>
  <text x="137" y="104" font-family="'Segoe UI',system-ui,sans-serif" font-size="14" fill="#7d8590">&#x5B66;&#x672F;&#x4E3B;&#x9875;&#x751F;&#x6210;&#x5668; | Flask | SQLite</text>
  <g transform="translate(137,116)">
    <rect width="66" height="22" rx="11" fill="#1a2332" stroke="#a371f7" stroke-width="1"/>
    <text x="33" y="15" font-family="monospace" font-size="10" fill="#a371f7" text-anchor="middle">Python</text>
    <rect x="76" width="60" height="22" rx="11" fill="#1a2332" stroke="#58a6ff" stroke-width="1"/>
    <text x="106" y="15" font-family="monospace" font-size="10" fill="#58a6ff" text-anchor="middle">Flask</text>
    <rect x="146" width="66" height="22" rx="11" fill="#1a2332" stroke="#3fb950" stroke-width="1"/>
    <text x="179" y="15" font-family="monospace" font-size="10" fill="#3fb950" text-anchor="middle">SQLite</text>
  </g>
</svg>